<svg width="1280" height="640" viewBox="0 0 1280 640" fill="none" xmlns="http://www.w3.org/2000/svg">
  <rect width="1280" height="640" fill="#F3F4F6"/>
  <rect width="1280" height="640" fill="url(#bg)"/>
  <circle cx="1110" cy="82" r="180" fill="#8B5CF6" fill-opacity="0.18"/>
  <circle cx="186" cy="556" r="210" fill="#4C1D95" fill-opacity="0.12"/>

  <rect x="72" y="72" width="1136" height="496" rx="36" fill="white" fill-opacity="0.9" stroke="#DDD6FE"/>

  <text x="112" y="154" fill="#6D28D9" font-family="Segoe UI, Arial, sans-serif" font-size="28" font-weight="700" letter-spacing="4">
    OSRS DAILY TRACKER
  </text>
  <text x="112" y="248" fill="#1E1B4B" font-family="Segoe UI, Arial, sans-serif" font-size="72" font-weight="800">
    Daily snapshots and goal tracking
  </text>
  <text x="112" y="314" fill="#4B5563" font-family="Segoe UI, Arial, sans-serif" font-size="30">
    Official hiscore pulls, friend comparisons, progress goals, and email reports
  </text>

  <rect x="112" y="388" width="184" height="58" rx="18" fill="#1E1B4B"/>
  <text x="160" y="425" fill="white" font-family="Segoe UI, Arial, sans-serif" font-size="24" font-weight="700">
    Python
  </text>

  <rect x="316" y="388" width="232" height="58" rx="18" fill="#4C1D95"/>
  <text x="354" y="425" fill="white" font-family="Segoe UI, Arial, sans-serif" font-size="24" font-weight="700">
    GitHub Actions
  </text>

  <rect x="568" y="388" width="208" height="58" rx="18" fill="#7C3AED"/>
  <text x="608" y="425" fill="white" font-family="Segoe UI, Arial, sans-serif" font-size="24" font-weight="700">
    OSRS Hiscores
  </text>

  <rect x="852" y="154" width="250" height="300" rx="28" fill="#F5F3FF" stroke="#C4B5FD"/>
  <text x="886" y="206" fill="#6D28D9" font-family="Segoe UI, Arial, sans-serif" font-size="22" font-weight="700">
    Goal Snapshot
  </text>
  <text x="886" y="256" fill="#111827" font-family="Segoe UI, Arial, sans-serif" font-size="42" font-weight="800">
    Base 90
  </text>
  <rect x="886" y="286" width="182" height="12" rx="6" fill="#E5E7EB"/>
  <rect x="886" y="286" width="132" height="12" rx="6" fill="#8B5CF6"/>

  <text x="886" y="348" fill="#111827" font-family="Segoe UI, Arial, sans-serif" font-size="42" font-weight="800">
    2250 TL
  </text>
  <rect x="886" y="378" width="182" height="12" rx="6" fill="#E5E7EB"/>
  <rect x="886" y="378" width="118" height="12" rx="6" fill="#3B82F6"/>

  <text x="886" y="440" fill="#111827" font-family="Segoe UI, Arial, sans-serif" font-size="42" font-weight="800">
    Max Cape
  </text>
  <rect x="886" y="470" width="182" height="12" rx="6" fill="#E5E7EB"/>
  <rect x="886" y="470" width="96" height="12" rx="6" fill="#EC4899"/>

  <defs>
    <linearGradient id="bg" x1="74" y1="58" x2="1218" y2="612" gradientUnits="userSpaceOnUse">
      <stop stop-color="#EDE9FE"/>
      <stop offset="0.45" stop-color="#F3F4F6"/>
      <stop offset="1" stop-color="#DDD6FE"/>
    </linearGradient>
  </defs>
</svg>
